<svg xmlns="http://www.w3.org/2000/svg" width="117" height="15" viewBox="0 0 117 15">
  <g fill="#131313">
    <polygon points=".068 14.727 .068 .477 1.667 .477 1.667 14.727 .068 14.727"/>
    <polygon points="41.63 14.727 41.63 .477 43.229 .477 43.229 13.261 49.079 13.261 49.079 14.727 41.63 14.727"/>
    <path d="M58.3299419,14.7272727 L64.35,0.477272727 L65.5744186,0.477272727 L71.5944767,14.7272727 L69.8938953,14.7272727 L68.4313953,11.2159091 L61.5270349,11.2159091 L60.0645349,14.7272727 L58.3299419,14.7272727 Z M62.1392442,9.75 L67.819186,9.75 L64.9622093,2.96590909 L62.1392442,9.75 Z"/>
    <polygon points="82.342 14.727 82.342 .477 83.805 .477 89.247 9.511 94.688 .477 96.151 .477 96.151 14.727 94.552 14.727 94.552 3.648 89.247 12.375 83.907 3.682 83.907 14.761 82.342 14.761"/>
    <path d="M108.054942 14.7272727L108.054942.477272727 112.6125.477272727C113.802907.477272727 114.857267.886363636 115.707558 1.73863636 116.557849 2.55681818 116.965988 3.57954545 116.965988 4.84090909 116.965988 6.10227273 116.523837 7.125 115.707558 7.94318182 114.857267 8.76136364 113.836919 9.17045455 112.6125 9.17045455L109.653488 9.17045455 109.653488 14.7613636 108.054942 14.7613636 108.054942 14.7272727zM109.653488 7.67045455L112.544477 7.67045455C113.326744 7.67045455 114.006977 7.39772727 114.551163 6.85227273 115.095349 6.30681818 115.367442 5.625 115.367442 4.80681818 115.367442 3.98863636 115.095349 3.30681818 114.551163 2.76136364 114.006977 2.21590909 113.360756 1.94318182 112.544477 1.94318182L109.653488 1.94318182 109.653488 7.67045455zM29.9642442 4.53409091C29.9642442 5.625 29.5561047 6.71590909 28.705814 7.53409091L21.5633721 14.6931818 14.4209302 7.53409091C12.7543605 5.86363636 12.7543605 3.17045455 14.4209302 1.5 15.2372093.681818182 16.3255814.238636364 17.4479651.238636364 18.5363372.238636364 19.6247093.647727273 20.4409884 1.5L21.5633721 2.625 22.6857558 1.5C24.3523256-.170454545 27.0392442-.170454545 28.705814 1.5 29.522093 2.35227273 29.9642442 3.44318182 29.9642442 4.53409091z"/>
  </g>
</svg>
